<?xml version="1.0" encoding="UTF-8" standalone="no"?>
<svg
   xmlns:dc="http://purl.org/dc/elements/1.1/"
   xmlns:cc="http://creativecommons.org/ns#"
   xmlns:rdf="http://www.w3.org/1999/02/22-rdf-syntax-ns#"
   xmlns:svg="http://www.w3.org/2000/svg"
   xmlns="http://www.w3.org/2000/svg"
   xmlns:sodipodi="http://sodipodi.sourceforge.net/DTD/sodipodi-0.dtd"
   xmlns:inkscape="http://www.inkscape.org/namespaces/inkscape"
   version="1.1"
   style="fill:none"
   width="96"
   height="61"
   id="svg8"
   sodipodi:docname="ver-nover.svg"
   inkscape:export-filename="D:\Users\Fernando A. Bava\Documents\Fernando\PortfolioYCurriculum\PortfolioWeb\misc\svg\show.png"
   inkscape:export-xdpi="96"
   inkscape:export-ydpi="96"
   inkscape:version="1.0.1 (3bc2e813f5, 2020-09-07)">
  <metadata
     id="metadata14">
    <rdf:RDF>
      <cc:Work
         rdf:about="">
        <dc:format>image/svg+xml</dc:format>
        <dc:type
           rdf:resource="http://purl.org/dc/dcmitype/StillImage" />
        <dc:title></dc:title>
      </cc:Work>
    </rdf:RDF>
  </metadata>
  <defs
     id="defs12" />
  <sodipodi:namedview
     pagecolor="#ffffff"
     bordercolor="#666666"
     borderopacity="1"
     objecttolerance="10"
     gridtolerance="10"
     guidetolerance="10"
     inkscape:pageopacity="0"
     inkscape:pageshadow="2"
     inkscape:window-width="1920"
     inkscape:window-height="1051"
     id="namedview10"
     showgrid="false"
     inkscape:zoom="4.7640718"
     inkscape:cx="46.218205"
     inkscape:cy="29.150186"
     inkscape:window-x="-9"
     inkscape:window-y="-9"
     inkscape:window-maximized="1"
     inkscape:current-layer="svg8">
    <sodipodi:guide
       position="0,61"
       orientation="0,96"
       id="guide906" />
    <sodipodi:guide
       position="96,61"
       orientation="61,0"
       id="guide908" />
    <sodipodi:guide
       position="96,0"
       orientation="0,-96"
       id="guide910" />
    <sodipodi:guide
       position="0,0"
       orientation="-61,0"
       id="guide912" />
  </sodipodi:namedview>
  <path
     style="fill:none;stroke:#6a6a6a;stroke-width:15px;stroke-linecap:round;stroke-linejoin:round"
     d=""
     id="path2" />
  <path
     style="fill:none;stroke:#4a4a4a;stroke-width:15px;stroke-linecap:round;stroke-linejoin:round"
     d=""
     id="path4" />
  <g
     id="g904"
     transform="matrix(0.9037124,0,0,0.9037124,-105.69929,1.8410653)"
     inkscape:export-xdpi="96"
     inkscape:export-ydpi="96">
    <path
       style="fill:none;stroke:#0a0a0a;stroke-width:2.95909px;stroke-linecap:butt;stroke-linejoin:round"
       d="m 192.24537,9.1884756 v 0 l 3.69885,-7.3977101"
       id="path879" />
    <path
       style="fill:none;stroke:#0a0a0a;stroke-width:2.95909px;stroke-linecap:butt;stroke-linejoin:round"
       d="m 147.85909,9.1884756 v 0 l -3.69886,-7.3977101"
       id="path877" />
    <path
       style="fill:none;stroke:#0a0a0a;stroke-width:2.95909px;stroke-linecap:butt;stroke-linejoin:round"
       d="m 207.04079,46.177042 v 0 l 7.39772,7.39771"
       id="path875" />
    <path
       style="fill:none;stroke:#0a0a0a;stroke-width:2.95909px;stroke-linecap:butt;stroke-linejoin:round"
       d="m 181.1488,57.273612 v 0 l 3.69885,7.39771"
       id="path873" />
    <path
       style="fill:none;stroke:#0a0a0a;stroke-width:2.95909px;stroke-linecap:butt;stroke-linejoin:round"
       d="m 158.95566,57.273612 v 0 l -3.69886,7.39771"
       id="path871" />
    <path
       style="fill:none;stroke:#0a0a0a;stroke-width:2.95909px;stroke-linecap:butt;stroke-linejoin:round"
       d="m 136.76252,46.177042 v 0 l -7.39772,7.39771"
       id="path869" />
    <path
       style="fill:none;stroke:#0a0a0a;stroke-width:2.95909px;stroke-linecap:butt;stroke-linejoin:round"
       d="m 207.04079,20.285046 v 0 l 7.39772,-3.69886"
       id="path867" />
    <path
       style="fill:none;stroke:#0a0a0a;stroke-width:2.95909px;stroke-linecap:butt;stroke-linejoin:round"
       d="m 170.05223,5.4896156 v 0 -7.3977101"
       id="path865" />
    <path
       style="fill:none;stroke:#0a0a0a;stroke-width:2.95909px;stroke-linecap:butt;stroke-linejoin:round"
       d="m 133.06366,20.285046 v 0 l -7.39771,-3.69886"
       id="path863" />
    <path
       style="fill:none;stroke:#0a0a0a;stroke-width:2.95909px;stroke-linecap:butt;stroke-linejoin:round"
       d="m 170.05223,23.983906 a 7.3977135,7.3977135 0 0 0 -7.39772,7.397706 7.3977135,7.3977135 0 0 0 7.39772,7.39771 7.3977135,7.3977135 0 0 0 7.39771,-7.39771 7.3977135,7.3977135 0 0 0 -7.39771,-7.397706"
       id="path857" />
    <path
       style="fill:none;stroke:#0a0a0a;stroke-width:2.95909px;stroke-linecap:butt;stroke-linejoin:round"
       d="m 170.05223,12.887336 a 18.494284,18.494284 0 0 0 -18.49429,18.494276 18.494284,18.494284 0 0 0 18.49429,18.49428 18.494284,18.494284 0 0 0 18.49428,-18.49428 18.494284,18.494284 0 0 0 -18.49428,-18.494276"
       id="path855" />
    <path
       style="fill:none;stroke:#0a0a0a;stroke-width:2.95909px;stroke-linecap:butt;stroke-linejoin:round"
       d="m 125.66595,31.381612 q 44.38628,40.68742 88.77256,0"
       id="path853" />
    <path
       style="fill:none;stroke:#0a0a0a;stroke-width:2.95909px;stroke-linecap:butt;stroke-linejoin:round"
       d="m 125.66595,31.381612 q 44.38628,-40.6874265 88.77256,0"
       id="path851" />
  </g>
  <g
     id="g889"
     transform="matrix(0.9037124,0,0,0.9037124,12.518446,-58.942153)">
    <path
       style="fill:none;stroke:#0a0a0a;stroke-width:2.95909px;stroke-linecap:butt;stroke-linejoin:round"
       d="m 44.291104,27.682756 q -3.69886,3.698856 0,7.397716"
       id="path861" />
    <path
       style="fill:none;stroke:#0a0a0a;stroke-width:2.95909px;stroke-linecap:butt;stroke-linejoin:round"
       d="m 51.688814,27.682756 q 3.69886,3.698856 0,7.397716"
       id="path859" />
    <path
       style="fill:none;stroke:#0a0a0a;stroke-width:2.95909px;stroke-linecap:butt;stroke-linejoin:round"
       d="m 66.484244,27.682756 q 3.69885,3.698856 0,7.397716"
       id="path849" />
    <path
       style="fill:none;stroke:#0a0a0a;stroke-width:2.95909px;stroke-linecap:butt;stroke-linejoin:round"
       d="m 29.495674,27.682756 q -3.69886,3.698856 0,7.397716"
       id="path847" />
    <path
       style="fill:none;stroke:#0a0a0a;stroke-width:2.95909px;stroke-linecap:butt;stroke-linejoin:round"
       d="m 3.603672,31.381612 a 44.386281,3.6988568 0 0 0 44.386282,3.69886 44.386281,3.6988568 0 0 0 44.386286,-3.69886"
       id="path845" />
    <path
       style="fill:none;stroke:#0a0a0a;stroke-width:2.95909px;stroke-linecap:butt;stroke-linejoin:round"
       d="M 3.603672,31.381612 A 44.386281,3.6988568 0 0 1 47.989954,27.682756 44.386281,3.6988568 0 0 1 92.37624,31.381612"
       id="path843" />
    <path
       style="fill:none;stroke:#0a0a0a;stroke-width:2.95909px;stroke-linecap:butt;stroke-linejoin:round"
       d="m 3.603672,31.381612 q 44.386282,40.68742 88.772568,0"
       id="path841" />
    <path
       style="fill:none;stroke:#0a0a0a;stroke-width:2.95909px;stroke-linecap:butt;stroke-linejoin:round"
       d="m 3.603672,31.381612 q 44.386282,-40.6874265 88.772568,0"
       id="path6" />
  </g>
</svg>
